# xmcd
#
# Track frame offsets:
#	150
#	18797
#	36202
#	58307
#	84447
#	103405
#	130772
#	156610
#	179082
#	205045
#	226707
#	247092
#	268620
#	286907
#	310165
#
# Disc length: 4441 seconds
# Revision: 5
# Processed by: cddbd v1.5.2PL0 Copyright (c) Steve Scherf et al.
# Submitted via: dBpowerAMP V12.0
#
DISCID=d511570f
DTITLE=The Whispers - 30th Anniversary Anthology [CD 2)
DYEAR=1981
DGENRE=Soul
TTITLE0=I'm The One For You
TTITLE1=I Can Make It Better
TTITLE2=This Kind Of Lovin'
TTITLE3=In The Raw
TTITLE4=Emergency
TTITLE5=Tonight
TTITLE6=Keep On Loving Me
TTITLE7=Contagious
TTITLE8=Some Kinda Lover
TTITLE9=Rock Steady
TTITLE10=Just Gets Better With Time
TTITLE11=In The Mood
TTITLE12=No Pain No Gain
TTITLE13=Say Yes
TTITLE14=Special FX
EXTD=
EXTT0=
EXTT1=
EXTT2=
EXTT3=
EXTT4=
EXTT5=
EXTT6=
EXTT7=
EXTT8=
EXTT9=
EXTT10=
EXTT11=
EXTT12=
EXTT13=
EXTT14=
PLAYORDER=
